<svg width="127" height="123" viewBox="0 0 127 123" fill="none" xmlns="http://www.w3.org/2000/svg">
<path d="M63.5 38.5C73.3583 38.5 81.35 30.7769 81.35 21.25C81.35 11.7231 73.3583 4 63.5 4C53.6417 4 45.65 11.7231 45.65 21.25C45.65 30.7769 53.6417 38.5 63.5 38.5ZM63.5 38.5V119M63.5 119C47.7196 119 32.5856 112.942 21.4271 102.159C10.2687 91.3753 4 76.7499 4 61.5H21.85M63.5 119C79.2804 119 94.4144 112.942 105.573 102.159C116.731 91.3753 123 76.7499 123 61.5H105.15" stroke="#F19EDC" stroke-width="7" stroke-linecap="round" stroke-linejoin="round"/>
<path d="M72.1371 21.9201C71.9862 23.4615 71.3731 24.9304 70.3696 26.155C69.3662 27.3796 68.0139 28.3092 66.4709 28.8351C64.9279 29.361 63.2582 29.4614 61.657 29.1245C60.0558 28.7876 58.5893 28.0274 57.4293 26.9328C56.2693 25.8383 55.4636 24.4546 55.1066 22.9438C54.7496 21.433 54.8559 19.8575 55.4133 18.4016C55.9706 16.9457 56.9558 15.6697 58.2537 14.7229C59.5515 13.7761 61.1083 13.1976 62.7419 13.0552C61.7855 14.276 61.3252 15.7803 61.4449 17.2943C61.5646 18.8082 62.2561 20.2314 63.3939 21.3049C64.5316 22.3785 66.0399 23.031 67.6445 23.1439C69.249 23.2568 70.8432 22.8226 72.1371 21.9201Z" stroke="#F19EDC" stroke-width="4" stroke-linecap="round" stroke-linejoin="round"/>
</svg>
