<svg width="124" height="125" viewBox="0 0 124 125" fill="none" xmlns="http://www.w3.org/2000/svg">
<ellipse cx="62" cy="62.5" rx="62" ry="62.5" fill="#151843" fill-opacity="0.6"/>
<path d="M61.5 43C69.0387 43 75.15 36.2843 75.15 28C75.15 19.7157 69.0387 13 61.5 13C53.9613 13 47.85 19.7157 47.85 28C47.85 36.2843 53.9613 43 61.5 43ZM61.5 43V113M61.5 113C49.4327 113 37.8595 107.732 29.3266 98.3553C20.7937 88.9785 16 76.2608 16 63H29.65M61.5 113C73.5674 113 85.1405 107.732 93.6734 98.3553C102.206 88.9785 107 76.2608 107 63H93.35" stroke="#F19EDC" stroke-width="2" stroke-linecap="round" stroke-linejoin="round"/>
<path d="M67.875 30.1254C67.7636 31.473 67.3111 32.7572 66.5704 33.8279C65.8298 34.8985 64.8316 35.7113 63.6928 36.171C62.5539 36.6308 61.3215 36.7185 60.1397 36.424C58.9578 36.1295 57.8755 35.4648 57.0192 34.5079C56.163 33.551 55.5684 32.3413 55.3049 31.0204C55.0413 29.6995 55.1198 28.3221 55.5312 27.0492C55.9426 25.7764 56.6698 24.6608 57.6277 23.8331C58.5856 23.0053 59.7347 22.4995 60.9404 22.375C60.2345 23.4424 59.8948 24.7575 59.9831 26.0811C60.0715 27.4048 60.5819 28.649 61.4217 29.5876C62.2614 30.5261 63.3747 31.0966 64.559 31.1953C65.7433 31.294 66.92 30.9144 67.875 30.1254Z" stroke="#F19EDC" stroke-width="1.6" stroke-linecap="round" stroke-linejoin="round"/>
</svg>
