<svg width="252" height="258" viewBox="0 0 252 258" fill="none" xmlns="http://www.w3.org/2000/svg">
<path d="M126 78.2C146.545 78.2 163.2 61.142 163.2 40.1C163.2 19.0579 146.545 2 126 2C105.455 2 88.8 19.0579 88.8 40.1C88.8 61.142 105.455 78.2 126 78.2ZM126 78.2V256M126 256C93.1132 256 61.5733 242.62 38.3188 218.803C15.0642 194.985 2 162.682 2 129H39.2M126 256C158.887 256 190.427 242.62 213.681 218.803C236.936 194.985 250 162.682 250 129H212.8" stroke="#F19EDC" stroke-width="4" stroke-linecap="round" stroke-linejoin="round"/>
<path d="M144 41.58C143.685 44.9844 142.408 48.2288 140.316 50.9336C138.225 53.6383 135.407 55.6916 132.191 56.8531C128.976 58.0146 125.496 58.2362 122.159 57.4922C118.822 56.7481 115.766 55.0691 113.348 52.6516C110.931 50.234 109.252 47.178 108.508 43.841C107.764 40.504 107.985 37.0242 109.147 33.8086C110.308 30.593 112.362 27.7747 115.066 25.6835C117.771 23.5923 121.016 22.3146 124.42 22C122.427 24.6965 121.468 28.0189 121.717 31.3628C121.966 34.7068 123.408 37.8501 125.779 40.2212C128.15 42.5923 131.293 44.0336 134.637 44.2829C137.981 44.5323 141.303 43.5732 144 41.58Z" stroke="#F19EDC" stroke-width="4" stroke-linecap="round" stroke-linejoin="round"/>
</svg>
