<svg width="48" height="48" viewBox="0 0 48 48" fill="none" xmlns="http://www.w3.org/2000/svg">
<path d="M22.42 42C19.0156 41.6854 15.7712 40.4077 13.0664 38.3165C10.3617 36.2253 8.30841 33.407 7.14692 30.1914C5.98543 26.9758 5.76375 23.496 6.50782 20.159C7.25188 16.822 8.93091 13.766 11.3484 11.3485C13.766 8.93091 16.822 7.25188 20.159 6.50782C23.496 5.76375 26.9758 5.98543 30.1914 7.14692C33.407 8.30841 36.2253 10.3617 38.3165 13.0664C40.4077 15.7712 41.6854 19.0156 42 22.42C39.3035 20.4268 35.9811 19.4677 32.6372 19.7171C29.2932 19.9664 26.1499 21.4077 23.7788 23.7788C21.4077 26.1499 19.9664 29.2932 19.7171 32.6372C19.4677 35.9811 20.4268 39.3035 22.42 42Z" stroke="#F19EDC" stroke-width="4" stroke-linecap="round" stroke-linejoin="round"/>
</svg>
