<svg width="48" height="48" viewBox="0 0 48 48" fill="none" xmlns="http://www.w3.org/2000/svg">
<path d="M6.00002 22.42C6.31463 19.0156 7.5923 15.7712 9.68352 13.0664C11.7747 10.3617 14.593 8.30841 17.8086 7.14692C21.0242 5.98543 24.504 5.76375 27.841 6.50782C31.178 7.25188 34.234 8.93091 36.6516 11.3484C39.0691 13.766 40.7481 16.822 41.4922 20.159C42.2363 23.496 42.0146 26.9758 40.8531 30.1914C39.6916 33.407 37.6384 36.2253 34.9336 38.3165C32.2288 40.4077 28.9844 41.6854 25.58 42C27.5732 39.3035 28.5323 35.9811 28.283 32.6372C28.0336 29.2932 26.5923 26.1499 24.2212 23.7788C21.8501 21.4077 18.7068 19.9664 15.3628 19.7171C12.0189 19.4677 8.69655 20.4268 6.00002 22.42Z" stroke="#F19EDC" stroke-width="4" stroke-linecap="round" stroke-linejoin="round"/>
</svg>
